<?xml version="1.0" encoding="utf-8"?>
<svg xmlns="http://www.w3.org/2000/svg" style="margin: auto; background: none; display: block; shape-rendering: auto;" width="281" height="96" preserveAspectRatio="xMidYMid">
<style type="text/css">
  text {
    text-anchor: middle; font-size: 52px; opacity: 0;
  }
</style>
<g style="transform-origin: 140.5px 48px; transform: scale(0.65);">
<g transform="translate(140.5,48)">
  <g transform="translate(-10,0)"><g class="path" style="transform: scale(0.91); transform-origin: -166.96px -3.6052px; animation: 1s linear -0.605s infinite normal forwards running breath-e6224891-bfb0-4939-9f8b-5c8293012e88;"><path d="M50.24-47.60L50.24-47.60L50.24-47.60Q57.68-47.60 63.12-50.64L63.12-50.64L64.08-49.12L64.08-49.12Q59.04-46.40 53.28-46L53.28-46L53.28-46Q48.88-40.72 45.76-32L45.76-32L45.76-32Q42.64-23.28 42.64-14.72L42.64-14.72L42.64-14.72Q42.64-6.16 45.76-2.72L45.76-2.72L45.76-2.72Q48.88 0.72 54.16 0.72L54.16 0.72L54.16 0.72Q61.68 0.72 68.08-7.12L68.08-7.12L68.08-7.12Q72.80-13.20 75.72-20.88L75.72-20.88L75.72-20.88Q78.64-28.56 79.36-34.92L79.36-34.92L79.36-34.92Q80.08-41.28 80.08-47.40L80.08-47.40L80.08-47.40Q80.08-53.52 78.80-58.72L78.80-58.72L80.48-59.12L80.48-59.12Q81.84-53.92 81.84-47.60L81.84-47.60L81.84-47.60Q81.84-41.28 81.08-34.72L81.08-34.72L81.08-34.72Q80.32-28.16 77.32-20.24L77.32-20.24L77.32-20.24Q74.32-12.32 69.44-6.08L69.44-6.08L69.44-6.08Q59.52 6.72 47.52 6.72L47.52 6.72L47.52 6.72Q40.64 6.72 37.36 2.20L37.36 2.20L37.36 2.20Q34.08-2.32 34.08-8.64L34.08-8.64L34.08-8.64Q34.08-14.96 35.96-21.44L35.96-21.44L35.96-21.44Q37.84-27.92 40.80-32.80L40.80-32.80L40.80-32.80Q45.84-41.28 50.48-45.92L50.48-45.92L50.48-45.92Q48.24-45.92 43.44-46.40L43.44-46.40L34.08-46.96L34.08-46.96Q22.88-46.96 16.56-41.40L16.56-41.40L16.56-41.40Q10.24-35.84 10.24-25.92L10.24-25.92L10.24-25.92Q10.24-22.16 11.52-19.16L11.52-19.16L11.52-19.16Q12.80-16.16 14.44-14.56L14.44-14.56L14.44-14.56Q16.08-12.96 18.16-11.84L18.16-11.84L18.16-11.84Q20.72-10.40 23.12-9.84L23.12-9.84L22.72-8.16L22.72-8.16Q21.12-8.16 18.28-9.76L18.28-9.76L18.28-9.76Q15.44-11.36 13.48-13.16L13.48-13.16L13.48-13.16Q11.52-14.96 10.04-18.32L10.04-18.32L10.04-18.32Q8.56-21.68 8.56-25.92L8.56-25.92L8.56-25.92Q8.56-36.40 15.44-42.56L15.44-42.56L15.44-42.56Q22.32-48.72 34.08-48.72L34.08-48.72L34.08-48.72Q36.80-48.72 43.68-48.16L43.68-48.16L43.68-48.16Q46.96-47.60 50.24-47.60" fill="#0c97b1" stroke="none" stroke-width="none" transform="translate(-212.1599884033203,22.59480016549428)" style="fill: rgb(12, 151, 177);"></path></g><g class="path" style="transform: scale(0.91); transform-origin: -119.08px 7.3948px; animation: 1s linear -0.55s infinite normal forwards running breath-e6224891-bfb0-4939-9f8b-5c8293012e88;"><path d="M99.76-2.16L99.76-2.16Q97.36 0.72 93.76 0.72L93.76 0.72L93.76 0.72Q90.16 0.72 88.12-1.12L88.12-1.12L88.12-1.12Q86.08-2.96 86.08-5.92L86.08-5.92L86.08-5.92Q86.08-6.96 87.36-14.64L87.36-14.64L90-28.96L86.64-28.96L86.80-30.40L90.24-30.40L90.24-30.40Q96.16-30.40 98.96-30.88L98.96-30.88L100.08-31.12L94.56-0.88L94.56-0.88Q96.96-1.12 98.56-3.12L98.56-3.12L99.76-2.16" fill="#0c97b1" stroke="none" stroke-width="none" transform="translate(-212.1599884033203,22.59480016549428)" style="fill: rgb(12, 151, 177);"></path></g><g class="path" style="transform: scale(0.91); transform-origin: -115.32px -20.3252px; animation: 1s linear -0.495s infinite normal forwards running breath-e6224891-bfb0-4939-9f8b-5c8293012e88;"><path d="M92.72-38.80L92.72-38.80L92.72-38.80Q91.04-40.48 91.04-42.88L91.04-42.88L91.04-42.88Q91.04-45.28 92.72-47L92.72-47L92.72-47Q94.40-48.72 96.80-48.72L96.80-48.72L96.80-48.72Q99.20-48.72 100.92-47L100.92-47L100.92-47Q102.64-45.28 102.64-42.88L102.64-42.88L102.64-42.88Q102.64-40.48 100.92-38.80L100.92-38.80L100.92-38.80Q99.20-37.12 96.80-37.12L96.80-37.12L96.80-37.12Q94.40-37.12 92.72-38.80" fill="#0c97b1" stroke="none" stroke-width="none" transform="translate(-212.1599884033203,22.59480016549428)" style="fill: rgb(12, 151, 177);"></path></g><g class="path" style="transform: scale(0.91); transform-origin: -89.72px -2.9652px; animation: 1s linear -0.44s infinite normal forwards running breath-e6224891-bfb0-4939-9f8b-5c8293012e88;"><path d="M132.08 0.72L132.08 0.72L132.08 0.72Q125.04 0.72 124.40-5.28L124.40-5.28L124.40-5.28Q120.88 0.72 115.44 0.72L115.44 0.72L115.44 0.72Q110 0.72 107.12-2.36L107.12-2.36L107.12-2.36Q104.24-5.44 104.24-10.80L104.24-10.80L104.24-10.80Q104.24-20.24 108.72-25.68L108.72-25.68L108.72-25.68Q113.20-31.12 120.32-31.12L120.32-31.12L120.32-31.12Q124.40-31.12 126.64-28.64L126.64-28.64L126.64-28.64Q127.60-27.36 127.84-26.72L127.84-26.72L132.16-50.24L132.16-50.24Q129.76-50 128.16-48L128.16-48L126.96-48.96L126.96-48.96Q129.36-51.84 133-51.84L133-51.84L133-51.84Q136.64-51.84 138.64-50L138.64-50L138.64-50Q140.64-48.16 140.64-44.80L140.64-44.80L140.64-44.80Q140.64-44.16 140.48-42.72L140.48-42.72L140.48-42.72Q136.56-20.72 132.88-0.88L132.88-0.88L132.88-0.88Q135.28-1.12 136.88-3.12L136.88-3.12L138.08-2.16L138.08-2.16Q135.68 0.72 132.08 0.72zM113.28-7.52L113.28-7.52Q113.28-3.84 114.04-2.48L114.04-2.48L114.04-2.48Q114.80-1.12 116.44-1.12L116.44-1.12L116.44-1.12Q118.08-1.12 119.60-2.24L119.60-2.24L119.60-2.24Q121.12-3.36 122.16-5.12L122.16-5.12L122.16-5.12Q124.08-8.08 124.88-10.16L124.88-10.16L127.20-22.80L127.20-22.80Q127.04-25.36 125.52-27.48L125.52-27.48L125.52-27.48Q124-29.60 120.32-29.60L120.32-29.60L120.32-29.60Q117.76-29.60 115.52-22.08L115.52-22.08L115.52-22.08Q113.28-14.56 113.28-7.52L113.28-7.52" fill="#0c97b1" stroke="none" stroke-width="none" transform="translate(-212.1599884033203,22.59480016549428)" style="fill: rgb(12, 151, 177);"></path></g><g class="path" style="transform: scale(0.91); transform-origin: -52.16px -2.9652px; animation: 1s linear -0.385s infinite normal forwards running breath-e6224891-bfb0-4939-9f8b-5c8293012e88;"><path d="M172.80-0.88L172.80-0.88L172.80-0.88Q174.72-0.88 176.80-3.12L176.80-3.12L178-2.16L178-2.16Q177.44-1.04 175.52-0.16L175.52-0.16L175.52-0.16Q173.60 0.72 171.28 0.72L171.28 0.72L171.28 0.72Q164 0.72 164-5.84L164-5.84L164-5.84Q164-8.64 165.44-15.84L165.44-15.84L165.44-15.84Q166.88-23.04 166.88-25.28L166.88-25.28L166.88-25.28Q166.88-28.72 163.60-28.72L163.60-28.72L163.60-28.72Q160.88-28.72 158.36-25.04L158.36-25.04L158.36-25.04Q155.84-21.36 154.24-15.04L154.24-15.04L151.60 0L142.00 0L150.88-50.24L150.88-50.24Q148.48-50 146.88-48L146.88-48L145.68-48.96L145.68-48.96Q148.08-51.84 151.72-51.84L151.72-51.84L151.72-51.84Q155.36-51.84 157.36-50L157.36-50L157.36-50Q159.36-48.16 159.36-44.80L159.36-44.80L159.36-44.80Q159.36-44.16 159.20-42.72L159.20-42.72L155.84-23.76L155.84-23.76Q159.12-31.12 166-31.12L166-31.12L166-31.12Q170.72-31.12 173.36-28.44L173.36-28.44L173.36-28.44Q176-25.76 176-21.04L176-21.04L176-21.04Q176-18.56 174.48-11.48L174.48-11.48L174.48-11.48Q172.96-4.40 172.80-0.88" fill="#0c97b1" stroke="none" stroke-width="none" transform="translate(-212.1599884033203,22.59480016549428)" style="fill: rgb(12, 151, 177);"></path></g><g class="path" style="transform: scale(0.91); transform-origin: -12.8px 14.3948px; animation: 1s linear -0.33s infinite normal forwards running breath-e6224891-bfb0-4939-9f8b-5c8293012e88;"><path d="M186.72-29.52L186.72-29.52L186.72-29.52Q184.80-29.52 182.72-27.28L182.72-27.28L181.52-28.24L181.52-28.24Q182.08-29.36 184-30.24L184-30.24L184-30.24Q185.92-31.12 188.24-31.12L188.24-31.12L188.24-31.12Q195.52-31.12 195.52-24.56L195.52-24.56L195.52-24.56Q195.52-21.76 194-15.40L194-15.40L194-15.40Q192.48-9.04 192.48-6.80L192.48-6.80L192.48-6.80Q192.48-2.96 195.68-2.96L195.68-2.96L195.68-2.96Q198.32-2.96 200.84-6.56L200.84-6.56L200.84-6.56Q203.36-10.16 204.96-16.24L204.96-16.24L207.60-30.40L207.60-30.40Q213.52-30.40 216.24-30.88L216.24-30.88L217.28-31.12L212.24-2.80L212.24-2.80Q210.80 5.44 205.56 10.08L205.56 10.08L205.56 10.08Q200.32 14.72 192 14.72L192 14.72L192 14.72Q186.96 14.72 184.20 13L184.20 13L184.20 13Q181.44 11.28 181.44 8.52L181.44 8.52L181.44 8.52Q181.44 5.76 183.12 4.12L183.12 4.12L183.12 4.12Q184.80 2.48 187.88 2.48L187.88 2.48L187.88 2.48Q190.96 2.48 193.60 3.48L193.60 3.48L193.60 3.48Q196.24 4.48 197.44 4.64L197.44 4.64L197.28 6.08L197.28 6.08Q195.92 5.92 193.36 4.96L193.36 4.96L193.36 4.96Q190.80 4 188.28 4L188.28 4L188.28 4Q185.76 4 184.44 5.12L184.44 5.12L184.44 5.12Q183.12 6.24 183.12 8.36L183.12 8.36L183.12 8.36Q183.12 10.48 185.44 11.80L185.44 11.80L185.44 11.80Q187.76 13.12 191.20 13.12L191.20 13.12L191.20 13.12Q199.52 13.12 201.44 3.12L201.44 3.12L203.44-7.92L203.44-7.92Q200.08-0.56 193.28-0.56L193.28-0.56L193.28-0.56Q188.64-0.56 186.12-3.20L186.12-3.20L186.12-3.20Q183.60-5.84 183.60-10.64L183.60-10.64L183.60-10.64Q183.60-13.12 185.08-19.56L185.08-19.56L185.08-19.56Q186.56-26 186.72-29.52" fill="#0c97b1" stroke="none" stroke-width="none" transform="translate(-212.1599884033203,22.59480016549428)" style="fill: rgb(12, 151, 177);"></path></g><g class="path" style="transform: scale(0.91); transform-origin: 25.52px 7.3948px; animation: 1s linear -0.275s infinite normal forwards running breath-e6224891-bfb0-4939-9f8b-5c8293012e88;"><path d="M248.64 0.72L248.64 0.72L248.64 0.72Q241.60 0.72 240.96-5.44L240.96-5.44L240.96-5.44Q237.44 0.72 232.08 0.72L232.08 0.72L232.08 0.72Q226.72 0.72 223.56-2.52L223.56-2.52L223.56-2.52Q220.40-5.76 220.40-11.60L220.40-11.60L220.40-11.60Q220.40-20.72 224.88-25.92L224.88-25.92L224.88-25.92Q229.36-31.12 236.48-31.12L236.48-31.12L236.48-31.12Q242.32-31.12 244.24-25.60L244.24-25.60L244.24-25.60Q244.64-28 245.12-30.40L245.12-30.40L245.12-30.40Q251.04-30.40 253.92-30.88L253.92-30.88L254.96-31.12L249.44-0.88L249.44-0.88Q251.84-1.12 253.44-3.12L253.44-3.12L254.64-2.16L254.64-2.16Q252.24 0.72 248.64 0.72zM229.44-7.52L229.44-7.52Q229.44-3.92 230.36-2.52L230.36-2.52L230.36-2.52Q231.28-1.12 233.20-1.12L233.20-1.12L233.20-1.12Q235.12-1.12 237.12-3.20L237.12-3.20L237.12-3.20Q239.76-5.92 241.36-10.08L241.36-10.08L241.36-10.08Q241.60-11.12 242.28-15.08L242.28-15.08L242.28-15.08Q242.96-19.04 243.44-21.60L243.44-21.60L243.44-21.60Q243.20-24.64 241.76-26.88L241.76-26.88L241.76-26.88Q240.32-29.12 238.16-29.12L238.16-29.12L238.16-29.12Q234.24-29.12 231.84-22.12L231.84-22.12L231.84-22.12Q229.44-15.12 229.44-7.52L229.44-7.52" fill="#0c97b1" stroke="none" stroke-width="none" transform="translate(-212.1599884033203,22.59480016549428)" style="fill: rgb(12, 151, 177);"></path></g><g class="path" style="transform: scale(0.91); transform-origin: 58.4px 5.5548px; animation: 1s linear -0.22s infinite normal forwards running breath-e6224891-bfb0-4939-9f8b-5c8293012e88;"><path d="M266.64-1.36L266.64-1.36L266.64-1.36Q274.56-1.36 274.56-13.04L274.56-13.04L274.56-13.04Q274.56-15.92 273.72-19.84L273.72-19.84L273.72-19.84Q272.88-23.76 272.72-24.72L272.72-24.72L272.72-24.72Q267.84-19.68 261.76-18.64L261.76-18.64L261.76-20.56L261.76-20.56Q267.52-21.84 272.56-27.12L272.56-27.12L272.56-27.44L272.56-27.44Q272.56-29.36 273.12-31.20L273.12-31.20L273.12-31.20Q273.68-33.04 274.24-33.92L274.24-33.92L274.80-34.80L276.72-34.80L276.72-34.80Q276.72-31.28 277.84-28.36L277.84-28.36L277.84-28.36Q278.96-25.44 280.32-23.64L280.32-23.64L280.32-23.64Q281.68-21.84 282.80-18.92L282.80-18.92L282.80-18.92Q283.92-16 283.92-12.48L283.92-12.48L283.92-12.48Q283.92-6.80 279.64-3.04L279.64-3.04L279.64-3.04Q275.36 0.72 269.36 0.72L269.36 0.72L269.36 0.72Q263.36 0.72 260.28-2L260.28-2L260.28-2Q257.20-4.72 257.20-8.28L257.20-8.28L257.20-8.28Q257.20-11.84 258.96-13.40L258.96-13.40L258.96-13.40Q260.72-14.96 263.12-14.96L263.12-14.96L263.12-14.96Q265.52-14.96 267.08-13.40L267.08-13.40L267.08-13.40Q268.64-11.84 268.64-9.40L268.64-9.40L268.64-9.40Q268.64-6.96 267.12-5.28L267.12-5.28L267.12-5.28Q265.60-3.60 263.20-3.60L263.20-3.60L263.20-3.60Q262.16-3.60 261.04-3.92L261.04-3.92L261.04-3.92Q262.80-1.36 266.64-1.36" fill="#0c97b1" stroke="none" stroke-width="none" transform="translate(-212.1599884033203,22.59480016549428)" style="fill: rgb(12, 151, 177);"></path></g><g class="path" style="transform: scale(0.91); transform-origin: 93.68px 7.3948px; animation: 1s linear -0.165s infinite normal forwards running breath-e6224891-bfb0-4939-9f8b-5c8293012e88;"><path d="M316.80 0.72L316.80 0.72L316.80 0.72Q309.76 0.72 309.12-5.44L309.12-5.44L309.12-5.44Q305.60 0.72 300.24 0.72L300.24 0.72L300.24 0.72Q294.88 0.72 291.72-2.52L291.72-2.52L291.72-2.52Q288.56-5.76 288.56-11.60L288.56-11.60L288.56-11.60Q288.56-20.72 293.04-25.92L293.04-25.92L293.04-25.92Q297.52-31.12 304.64-31.12L304.64-31.12L304.64-31.12Q310.48-31.12 312.40-25.60L312.40-25.60L312.40-25.60Q312.80-28 313.28-30.40L313.28-30.40L313.28-30.40Q319.20-30.40 322.08-30.88L322.08-30.88L323.12-31.12L317.60-0.88L317.60-0.88Q320.00-1.12 321.60-3.12L321.60-3.12L322.80-2.16L322.80-2.16Q320.40 0.72 316.80 0.72zM297.60-7.52L297.60-7.52Q297.60-3.92 298.52-2.52L298.52-2.52L298.52-2.52Q299.44-1.12 301.36-1.12L301.36-1.12L301.36-1.12Q303.28-1.12 305.28-3.20L305.28-3.20L305.28-3.20Q307.92-5.92 309.52-10.08L309.52-10.08L309.52-10.08Q309.76-11.12 310.44-15.08L310.44-15.08L310.44-15.08Q311.12-19.04 311.60-21.60L311.60-21.60L311.60-21.60Q311.36-24.64 309.92-26.88L309.92-26.88L309.92-26.88Q308.48-29.12 306.32-29.12L306.32-29.12L306.32-29.12Q302.40-29.12 300.00-22.12L300.00-22.12L300.00-22.12Q297.60-15.12 297.60-7.52L297.60-7.52" fill="#0c97b1" stroke="none" stroke-width="none" transform="translate(-212.1599884033203,22.59480016549428)" style="fill: rgb(12, 151, 177);"></path></g><g class="path" style="transform: scale(0.91); transform-origin: 131.28px 14.3948px; animation: 1s linear -0.11s infinite normal forwards running breath-e6224891-bfb0-4939-9f8b-5c8293012e88;"><path d="M353.60 8.72L353.60 8.72L353.60 8.72Q356.48 8.72 358.56 6.48L358.56 6.48L359.68 7.44L359.68 7.44Q357.76 10.16 353.60 10.16L353.60 10.16L353.60 10.16Q351.84 10.16 350.00 9.76L350.00 9.76L350.00 9.76Q344.56 14.72 336.08 14.72L336.08 14.72L336.08 14.72Q331.04 14.72 328.28 13L328.28 13L328.28 13Q325.52 11.28 325.52 8.52L325.52 8.52L325.52 8.52Q325.52 5.76 327.24 4.12L327.24 4.12L327.24 4.12Q328.96 2.48 333.36 2.48L333.36 2.48L333.36 2.48Q337.76 2.48 344.96 6.08L344.96 6.08L347.44-7.20L347.44-7.20Q343.84-0.56 338.16-0.56L338.16-0.56L338.16-0.56Q327.28-0.56 327.28-11.28L327.28-11.28L327.28-11.28Q327.28-20.24 331.80-25.68L331.80-25.68L331.80-25.68Q336.32-31.12 343.36-31.12L343.36-31.12L343.36-31.12Q347.44-31.12 349.68-28.64L349.68-28.64L349.68-28.64Q350.32-27.92 350.96-26.48L350.96-26.48L351.68-30.40L351.68-30.40Q357.60-30.40 360.32-30.88L360.32-30.88L361.36-31.12L356.08-1.60L356.08-1.60Q354.88 4.64 351.28 8.48L351.28 8.48L351.28 8.48Q352.32 8.72 353.60 8.72zM336.32-8.80L336.32-8.80Q336.32-5.12 337.04-3.88L337.04-3.88L337.04-3.88Q337.76-2.64 339.76-2.64L339.76-2.64L339.76-2.64Q341.76-2.64 343.84-4.80L343.84-4.80L343.84-4.80Q345.92-6.96 346.84-8.84L346.84-8.84L346.84-8.84Q347.76-10.72 348.40-12.48L348.40-12.48L350.08-21.68L350.08-22.24L350.08-22.24Q350.08-29.60 343.36-29.60L343.36-29.60L343.36-29.60Q340.80-29.60 338.56-22.64L338.56-22.64L338.56-22.64Q336.32-15.68 336.32-8.80L336.32-8.80zM335.76 13.12L335.76 13.12L335.76 13.12Q342.16 13.12 344.40 7.60L344.40 7.60L343.28 7.04L343.28 7.04Q342.32 6.56 342.12 6.44L342.12 6.44L342.12 6.44Q341.92 6.32 341.04 5.92L341.04 5.92L341.04 5.92Q340.16 5.52 339.76 5.40L339.76 5.40L339.76 5.40Q339.36 5.28 338.52 4.96L338.52 4.96L338.52 4.96Q337.68 4.64 337.12 4.52L337.12 4.52L337.12 4.52Q336.56 4.40 335.84 4.24L335.84 4.24L335.84 4.24Q334.64 4 332.32 4L332.32 4L332.32 4Q330.00 4 328.60 5.12L328.60 5.12L328.60 5.12Q327.20 6.24 327.20 8.40L327.20 8.40L327.20 8.40Q327.20 10.56 329.52 11.84L329.52 11.84L329.52 11.84Q331.84 13.12 335.76 13.12" fill="#0c97b1" stroke="none" stroke-width="none" transform="translate(-212.1599884033203,22.59480016549428)" style="fill: rgb(12, 151, 177);"></path></g><g class="path" style="transform: scale(0.91); transform-origin: 169.6px 7.3948px; animation: 1s linear -0.055s infinite normal forwards running breath-e6224891-bfb0-4939-9f8b-5c8293012e88;"><path d="M392.72 0.72L392.72 0.72L392.72 0.72Q385.68 0.72 385.04-5.44L385.04-5.44L385.04-5.44Q381.52 0.72 376.16 0.72L376.16 0.72L376.16 0.72Q370.80 0.72 367.64-2.52L367.64-2.52L367.64-2.52Q364.48-5.76 364.48-11.60L364.48-11.60L364.48-11.60Q364.48-20.72 368.96-25.92L368.96-25.92L368.96-25.92Q373.44-31.12 380.56-31.12L380.56-31.12L380.56-31.12Q386.40-31.12 388.32-25.60L388.32-25.60L388.32-25.60Q388.72-28 389.20-30.40L389.20-30.40L389.20-30.40Q395.12-30.40 398.00-30.88L398.00-30.88L399.04-31.12L393.52-0.88L393.52-0.88Q395.92-1.12 397.52-3.12L397.52-3.12L398.72-2.16L398.72-2.16Q396.32 0.72 392.72 0.72zM373.52-7.52L373.52-7.52Q373.52-3.92 374.44-2.52L374.44-2.52L374.44-2.52Q375.36-1.12 377.28-1.12L377.28-1.12L377.28-1.12Q379.20-1.12 381.20-3.20L381.20-3.20L381.20-3.20Q383.84-5.92 385.44-10.08L385.44-10.08L385.44-10.08Q385.68-11.12 386.36-15.08L386.36-15.08L386.36-15.08Q387.04-19.04 387.52-21.60L387.52-21.60L387.52-21.60Q387.28-24.64 385.84-26.88L385.84-26.88L385.84-26.88Q384.40-29.12 382.24-29.12L382.24-29.12L382.24-29.12Q378.32-29.12 375.92-22.12L375.92-22.12L375.92-22.12Q373.52-15.12 373.52-7.52L373.52-7.52" fill="#0c97b1" stroke="none" stroke-width="none" transform="translate(-212.1599884033203,22.59480016549428)" style="fill: rgb(12, 151, 177);"></path></g><g class="path" style="transform: scale(0.91); transform-origin: 206.08px 7.0348px; animation: 1s linear 0s infinite normal forwards running breath-e6224891-bfb0-4939-9f8b-5c8293012e88;"><path d="M404.88-27.28L403.68-28.24L403.68-28.24Q406.08-31.12 409.72-31.12L409.72-31.12L409.72-31.12Q413.36-31.12 415.36-29.28L415.36-29.28L415.36-29.28Q417.36-27.44 417.36-24.08L417.36-24.08L417.36-23.60L417.36-23.60Q420.96-31.12 426.72-31.12L426.72-31.12L426.72-31.12Q432.88-31.12 432.88-24.72L432.88-24.72L432.88-24.72Q432.88-22.08 431.12-19.12L431.12-19.12L431.12-19.12Q429.36-16.16 427.60-13.48L427.60-13.48L427.60-13.48Q425.84-10.80 425.84-8.72L425.84-8.72L423.92-8.72L423.92-8.72Q423.92-11.68 427.36-16.72L427.36-16.72L427.36-16.72Q430.80-21.76 430.80-24.52L430.80-24.52L430.80-24.52Q430.80-27.28 429.72-28.28L429.72-28.28L429.72-28.28Q428.64-29.28 426.52-29.28L426.52-29.28L426.52-29.28Q424.40-29.28 422.36-27.44L422.36-27.44L422.36-27.44Q420.32-25.60 418.96-22.80L418.96-22.80L418.96-22.80Q416.80-18.64 416.08-16L416.08-16L416.08-15.92L413.20 0L403.60 0L408.88-29.52L408.88-29.52Q406.48-29.28 404.88-27.28L404.88-27.28" fill="#0c97b1" stroke="none" stroke-width="none" transform="translate(-212.1599884033203,22.59480016549428)" style="fill: rgb(12, 151, 177);"></path></g></g>
</g>
</g>
<style id="breath-e6224891-bfb0-4939-9f8b-5c8293012e88" data-anikit="">@keyframes breath-e6224891-bfb0-4939-9f8b-5c8293012e88
{
  0% {
    animation-timing-function: cubic-bezier(0.9647,0.2413,-0.0705,0.7911);
    transform: scale(0.9099999999999999);
  }
  51% {
    animation-timing-function: cubic-bezier(0.9226,0.2631,-0.0308,0.7628);
    transform: scale(1.02994);
  }
  100% {
    transform: scale(0.9099999999999999);
  }
}</style></svg>